<?xml version="1.0" standalone="no"?><!DOCTYPE svg PUBLIC "-//W3C//DTD SVG 1.1//EN" "http://www.w3.org/Graphics/SVG/1.1/DTD/svg11.dtd"><svg t="1588893412542" class="icon" viewBox="0 0 1024 1024" version="1.1" xmlns="http://www.w3.org/2000/svg" p-id="3790" xmlns:xlink="http://www.w3.org/1999/xlink" width="32" height="32"><defs><style type="text/css"></style></defs><path d="M512 63.8c-11.8 0-21.3 9.6-21.3 21.3v170.7c0 11.8 9.6 21.3 21.3 21.3 11.8 0 21.3-9.6 21.3-21.3V85.1c0-11.8-9.5-21.3-21.3-21.3z m0 682.7c-11.8 0-21.3 9.6-21.3 21.3v170.7c0 11.8 9.6 21.3 21.3 21.3 11.8 0 21.3-9.6 21.3-21.3V767.8c0-11.8-9.5-21.3-21.3-21.3zM225.3 195.2c-8.2-8.2-21.6-8.2-29.9 0-8.2 8.2-8.2 21.6 0 29.9l120.7 120.7c7.7 8.2 20.7 8.7 28.9 0.9l0.9-0.9c8.2-7.7 8.7-20.7 0.9-28.9l-0.9-0.9-120.6-120.8z m482.5 482.6c-8.2-8.2-21.6-8.2-29.9 0-8.2 8.2-8.2 21.6 0 29.9l120.7 120.7c7.7 8.2 20.7 8.7 28.9 0.9l0.9-0.9c8.2-7.7 8.7-20.7 0.9-28.9l-0.9-0.9-120.6-120.8z m-430.5-166c0-11.8-9.6-21.3-21.3-21.3H85.3c-11.8 0-21.3 9.6-21.3 21.3 0 11.8 9.6 21.3 21.3 21.3H256c11.8 0 21.3-9.5 21.3-21.3z m661.4-21.3H768c-11.8 0-21.3 9.6-21.3 21.3 0 11.8 9.6 21.3 21.3 21.3h170.7c11.8 0 21.3-9.6 21.3-21.3 0-11.8-9.5-21.3-21.3-21.3zM316.2 677.8L195.4 798.5c-8.2 7.7-8.7 20.7-0.9 28.9l0.9 0.9c7.7 8.2 20.7 8.7 28.9 0.9l0.9-0.9L346 707.6c8.2-8.2 8.2-21.6 0-29.9-8.2-8.2-21.6-8.2-29.8 0.1z m376.7-325.6c5.7 0.1 11.1-2.3 14.9-6.4l120.7-120.7c8.2-8.2 8.2-21.6 0-29.9-8.2-8.2-21.6-8.2-29.9 0L678 316c-8.2 7.7-8.7 20.7-0.9 28.9l0.9 0.9c3.8 4.2 9.3 6.5 14.9 6.4z" p-id="3791" fill="#8a8a8a"></path></svg>