<?xml version="1.0" standalone="no"?><!DOCTYPE svg PUBLIC "-//W3C//DTD SVG 1.1//EN" "http://www.w3.org/Graphics/SVG/1.1/DTD/svg11.dtd"><svg t="1588674639653" class="icon" viewBox="0 0 1024 1024" version="1.1" xmlns="http://www.w3.org/2000/svg" p-id="18121" width="48" height="48" xmlns:xlink="http://www.w3.org/1999/xlink"><defs><style type="text/css"></style></defs><path d="M512.085333 0a42.154667 42.154667 0 0 1 42.154667 42.154667v129.706666a42.154667 42.154667 0 0 1-84.309333 0V42.24A42.069333 42.069333 0 0 1 512.085333 0z" p-id="18122" fill="#707070"></path><path d="M774.570667 63.488a42.666667 42.666667 0 0 1 15.445333 57.6l-64.853333 112.384a42.24 42.24 0 0 1-73.130667-42.154667l64.853333-112.298666a42.666667 42.666667 0 0 1 57.685334-15.530667z" p-id="18123" fill="#707070"></path><path d="M958.890667 264.96a42.154667 42.154667 0 0 1-15.445334 57.6l-112.298666 64.853333a42.154667 42.154667 0 0 1-42.154667-73.045333l112.298667-64.853333a42.666667 42.666667 0 0 1 57.6 15.445333z" p-id="18124" fill="#707070"></path><path d="M1024 502.016a42.154667 42.154667 0 0 1-42.154667 42.154667h-129.706666a42.154667 42.154667 0 0 1 0-84.309334h129.706666a41.984 41.984 0 0 1 42.154667 42.154667z" p-id="18125" fill="#707070"></path><path d="M959.146667 759.04a42.666667 42.666667 0 0 1-57.6 15.445333l-112.298667-64.853333a42.24 42.24 0 0 1 42.154667-73.130667l112.298666 64.853334a42.666667 42.666667 0 0 1 15.445334 57.685333z" p-id="18126" fill="#707070"></path><path d="M774.570667 976.725333a42.154667 42.154667 0 0 1-57.6-15.445333l-64.853334-112.298667a42.154667 42.154667 0 0 1 73.045334-42.154666l64.853333 112.298666a42.154667 42.154667 0 0 1-15.445333 57.6z" p-id="18127" fill="#707070"></path><path d="M512 1024a42.154667 42.154667 0 0 1-42.154667-42.154667v-129.706666a42.154667 42.154667 0 0 1 84.309334 0v129.706666A42.154667 42.154667 0 0 1 512 1024z" p-id="18128" fill="#707070"></path><path d="M249.429333 976.810667a42.666667 42.666667 0 0 1-15.445333-57.6l64.853333-112.298667a42.154667 42.154667 0 0 1 73.045334 42.154667l-64.853334 112.298666a42.666667 42.666667 0 0 1-57.6 15.445334z" p-id="18129" fill="#707070"></path><path d="M48.042667 759.04a42.154667 42.154667 0 0 1 15.445333-57.6l112.298667-64.853333a42.154667 42.154667 0 1 1 42.154666 73.045333l-112.298666 64.853333a42.666667 42.666667 0 0 1-57.6-15.445333z" p-id="18130" fill="#707070"></path><path d="M0 502.016a42.154667 42.154667 0 0 1 42.154667-42.154667h129.706666a42.154667 42.154667 0 1 1 0 84.309334H42.154667A42.154667 42.154667 0 0 1 0 502.016z" p-id="18131" fill="#707070"></path><path d="M48.042667 264.96a42.666667 42.666667 0 0 1 57.6-15.445333l112.298666 64.853333a42.154667 42.154667 0 1 1-42.154666 73.045333L63.488 322.56a42.154667 42.154667 0 0 1-15.445333-57.6z" p-id="18132" fill="#707070"></path><path d="M249.429333 63.658667a42.154667 42.154667 0 0 1 57.6 15.445333l64.853334 112.298667a42.154667 42.154667 0 0 1-73.045334 42.154666l-64.853333-112.298666a42.666667 42.666667 0 0 1 15.445333-57.6z" p-id="18133" fill="#707070"></path></svg>